<svg fill="none" viewBox="0 0 40 40">
    <g fill="#0115C6" clip-path="url(#a)">
        <path d="M10.848 1.044A12.872 12.872 0 0 0 4.931 11.88c0 4.571 2.387 8.57 5.976 10.836C4.852 22.716 0 17.87 0 11.88a10.83 10.83 0 0 1 3.177-7.662 10.854 10.854 0 0 1 7.671-3.174Z"/>
        <path d="m14.97 15.9-2.288-1.439-2.209 1.537.671-2.6-2.15-1.636 2.683-.177.887-2.542 1.006 2.502 2.683.06-2.072 1.714.79 2.58Zm6.51-7.113-2.92-1.832-2.84 1.97.828-3.35-2.741-2.088 3.451-.236L18.402 0l1.322 3.211 3.412.06-2.663 2.226 1.006 3.29ZM33.669 4l2.82 2.817L5.78 37.493l-2.82-2.817L33.669 4Zm-.139 19.702a10.83 10.83 0 0 1-3.177 7.662 10.854 10.854 0 0 1-14.1 1.066L31.42 17.279a10.803 10.803 0 0 1 2.11 6.423Zm-.138 7.644 2.269-5.457L40 30.892l-6.608.453Zm2.268-9.772-2.248-5.477 6.588.472-4.34 5.005ZM24.852 36.666l5.464-2.266-.474 6.6-4.99-4.334ZM15.05 34.4l5.463 2.266-4.99 4.314-.474-6.58Z"/>
    </g>
    <defs>
        <clipPath id="a">
            <path fill="#fff" d="M0 0h40v41H0z"/>
        </clipPath>
    </defs>
</svg>
